<?xml version="1.0" encoding="utf-8"?>
<!-- Generator: Adobe Illustrator 22.1.0, SVG Export Plug-In . SVG Version: 6.00 Build 0)  -->
<svg version="1.1" id="Layer_1" xmlns="http://www.w3.org/2000/svg" xmlns:xlink="http://www.w3.org/1999/xlink" x="0px" y="0px"
	 viewBox="0 0 400 100" style="enable-background:new 0 0 400 100;" xml:space="preserve">
<style type="text/css">
	.st0{fill:#010101;}
</style>
<g>
	<path class="st0" d="M44.1,55.1c1.1-3.1,0-5.2-3.5-6.3c-3.4-1.1-7.3-2.3-11.4-3.5c-11.4-3.2-15.5-9-12.4-17.5
		c5.2-13.5,15.6-20.1,31.4-20c15.1,0,20.5,6.6,16.4,19.9h-7.3c-2.7,0-4.1-1.3-4.5-3.8c-0.8-3.7-4-5.5-9.6-5.5
		C36.3,18.5,32,21.1,29.9,26c-1.5,4,1.5,7,9.2,8.9c4.4,1.1,9,2.5,13.6,4.4c6.3,2.5,7.7,7.7,4.4,15.8c-5.3,12.5-16,18.7-32.2,18.7
		c-17,0-23-7.1-18.3-21h12.7c-2,6.8,1.1,10.2,9.5,10.2S42.3,60.3,44.1,55.1z"/>
	<path class="st0" d="M117.8,40.9c-5.7,15.7-16.8,27.4-30.3,30.7c-3.5,0.8-8.2,1.3-14,1.3H51.9l20.8-57.2c1.6-4.4,4.6-6.8,9.1-6.9
		h18.5C120.6,8.8,125.2,20.4,117.8,40.9z M96.2,20H84L69,61.3h10.5c13,0,20.1-7,25-20.4C109.1,28,108.1,20,96.2,20z"/>
	<path class="st0" d="M161.8,8.8l-0.3,64h-13.8l0.5-13.1h-24.8l-9,13.1h-14l43.1-59.8c2-2.8,4.6-4.2,7.8-4.2H161.8z M130.8,49h17.6
		l1.1-27.2L130.8,49z"/>
	<path class="st0" d="M202.5,8.8h12.7l-4.9,48.8l30.3-48.8h19.5l-23.3,64h-12.3l18.8-51.7l-31.9,51.7h-13.4l5.7-51.7L185,72.9h-12.3
		l20.8-57.2C194.8,12,198.9,8.8,202.5,8.8z"/>
	<path class="st0" d="M299.4,8.8l-0.3,64h-13.8l0.5-13.1H261l-9,13.1h-14l43.1-59.8c2-2.8,4.6-4.2,7.8-4.2H299.4z M268.4,49H286
		l1.1-27.2L268.4,49z"/>
	<path class="st0" d="M330.1,8.8h6.5l-19,52.3h31.3l-4.3,11.8h-44.4L321,15.7C322.3,12,326.4,8.8,330.1,8.8z"/>
	<path class="st0" d="M377.3,8.8h6.5l-19,52.3H396l-4.3,11.8h-44.4l20.8-57.2C369.5,12,373.6,8.8,377.3,8.8z"/>
</g>
<g>
	<path class="st0" d="M13.3,91.1v-1.6h13.6c0.3,0,0.4,0.3,0.4,0.8c0,0.5-0.1,0.8-0.4,0.8H13.3z M25.1,86.8c-0.4-0.2-0.9-0.4-1.3-0.6
		c-0.5-0.2-0.9-0.5-1.4-0.9c-0.4-0.3-0.8-0.7-1.2-1c-0.4-0.4-0.7-0.8-0.9-1.2c-0.2,0.4-0.5,0.8-0.9,1.1c-0.4,0.4-0.8,0.7-1.2,1.1
		c-0.4,0.3-0.9,0.6-1.4,0.9c-0.5,0.3-0.9,0.5-1.3,0.7c-0.1,0.1-0.2,0-0.3-0.1c-0.1-0.1-0.2-0.3-0.4-0.5c-0.2-0.2-0.3-0.4-0.3-0.6
		c0-0.1,0-0.2,0.1-0.3c1-0.5,1.8-1,2.5-1.5c0.7-0.5,1.2-1.1,1.6-1.6c0.2-0.4,0.4-0.7,0.5-1.1c0.1-0.3,0.1-0.7,0.1-1v-1h2v1.1
		c0,0.4,0,0.7,0.1,1c0.1,0.3,0.2,0.6,0.5,1c0.2,0.3,0.4,0.6,0.8,0.9s0.7,0.6,1,0.8c0.4,0.3,0.7,0.5,1.1,0.7c0.4,0.2,0.8,0.4,1.1,0.6
		c0.1,0.1,0.2,0.1,0.1,0.3c0,0.1-0.1,0.3-0.2,0.5c-0.1,0.2-0.2,0.4-0.3,0.5C25.3,86.9,25.2,86.9,25.1,86.8z"/>
	<path class="st0" d="M77.5,85.4c0.3,0,0.4,0.3,0.4,0.8c0,0.5-0.1,0.8-0.4,0.8h-4.2v2.5h5.8c0.3,0,0.4,0.3,0.4,0.8
		c0,0.5-0.1,0.8-0.4,0.8H65.5v-1.6h6V87h-4.4v-1.6h2v-4.2h-2v-1.6h10.4c0.3,0,0.4,0.3,0.4,0.8c0,0.5-0.1,0.8-0.4,0.8h-1.6v4.2H77.5z
		 M74.1,81.2h-3.1v4.2h3.1V81.2z"/>
	<path class="st0" d="M131.3,89.5c0.3,0,0.4,0.3,0.4,0.8c0,0.5-0.1,0.8-0.4,0.8h-13.6v-1.6H131.3z M123.8,78.5h1.8v1.7h4.1
		c0.3,0,0.4,0.3,0.4,0.8c0,0.5-0.1,0.8-0.4,0.8h-4c0.1,0.2,0.1,0.4,0.2,0.6c0.1,0.2,0.2,0.3,0.3,0.5c0.2,0.3,0.5,0.6,0.8,0.9
		c0.3,0.3,0.7,0.5,1,0.8c0.4,0.3,0.7,0.5,1.1,0.7c0.4,0.2,0.7,0.4,1,0.6c0.1,0.1,0.2,0.2,0.1,0.3c0,0.1-0.2,0.3-0.3,0.5
		c-0.2,0.3-0.3,0.4-0.4,0.5c-0.1,0.1-0.2,0.1-0.3,0c-0.9-0.4-1.8-1-2.9-1.8c-0.3-0.3-0.7-0.6-1-0.9c-0.3-0.3-0.5-0.6-0.7-0.9
		c-0.2,0.4-0.6,0.7-1,1.1c-0.4,0.4-0.8,0.7-1.2,1c-0.4,0.3-0.9,0.6-1.3,0.8c-0.4,0.2-0.8,0.5-1.3,0.7c-0.1,0.1-0.2,0-0.3-0.1
		c-0.1-0.1-0.2-0.2-0.4-0.5c-0.3-0.5-0.4-0.8-0.2-0.9c0.4-0.2,0.7-0.4,1.1-0.6c0.4-0.2,0.7-0.4,1-0.7c0.3-0.2,0.7-0.5,1-0.7
		c0.3-0.3,0.6-0.5,0.8-0.8c0.3-0.4,0.5-0.8,0.6-1.2h-4.1v-1.6h4.3V78.5z"/>
	<path class="st0" d="M172.3,88.9c-0.2,0-0.4-0.1-0.6-0.2c-0.2-0.2-0.4-0.3-0.6-0.5c-0.2-0.2-0.3-0.3-0.4-0.6
		c-0.1-0.2-0.2-0.4-0.2-0.5v-7.3h6.9c0.3,0,0.4,0.3,0.4,0.8c0,0.5-0.1,0.8-0.4,0.8h-5.1v5.4c0,0.2,0,0.3,0.1,0.4
		c0.1,0.1,0.2,0.1,0.4,0.1h5.5c0.3,0,0.4,0.3,0.4,0.8c0,0.5-0.1,0.8-0.4,0.8H172.3z M180,78.6h1.8v4.7h2.4V85h-2.4V92
		c0,0.1-0.1,0.2-0.3,0.3c-0.2,0.1-0.4,0.1-0.6,0.1c-0.6,0-0.9-0.1-0.9-0.4V78.6z"/>
	<path class="st0" d="M222.4,84.1c0-0.6,0.1-1.2,0.3-1.7c0.2-0.5,0.5-1,0.9-1.3c0.4-0.4,0.8-0.6,1.3-0.8c0.5-0.2,1.1-0.3,1.7-0.3
		c0.6,0,1.2,0.1,1.7,0.3c0.5,0.2,0.9,0.5,1.3,0.8c0.4,0.4,0.7,0.8,0.9,1.3c0.2,0.5,0.3,1.1,0.3,1.7c0,0.6-0.1,1.2-0.3,1.7
		c-0.2,0.5-0.5,1-0.9,1.3c-0.4,0.4-0.8,0.6-1.3,0.8c-0.5,0.2-1.1,0.3-1.7,0.3c-0.6,0-1.2-0.1-1.7-0.3c-0.5-0.2-0.9-0.5-1.3-0.8
		c-0.4-0.4-0.7-0.8-0.9-1.3C222.5,85.3,222.4,84.7,222.4,84.1z M229,84.1c0-0.8-0.2-1.4-0.7-1.9c-0.4-0.5-1-0.7-1.7-0.7
		s-1.3,0.2-1.7,0.7c-0.4,0.5-0.7,1.1-0.7,1.9s0.2,1.4,0.7,1.9c0.4,0.5,1,0.7,1.7,0.7s1.3-0.2,1.7-0.7C228.7,85.5,229,84.9,229,84.1z
		 M234.5,92c0,0.1-0.1,0.2-0.3,0.3c-0.2,0.1-0.4,0.1-0.6,0.1c-0.3,0-0.5,0-0.7-0.1c-0.2-0.1-0.3-0.2-0.3-0.3V78.6h1.8V92z"/>
	<path class="st0" d="M274.1,84.1c0-0.6,0.1-1.2,0.3-1.7c0.2-0.5,0.5-1,0.9-1.3c0.4-0.4,0.8-0.6,1.3-0.8s1.1-0.3,1.7-0.3
		c0.5,0,1,0.1,1.5,0.2c0.5,0.1,0.9,0.4,1.2,0.6c0.4,0.3,0.6,0.6,0.9,1s0.4,0.8,0.5,1.3h2.2v-4.5h1.8V92c0,0.1-0.1,0.2-0.3,0.3
		c-0.2,0.1-0.4,0.1-0.6,0.1c-0.3,0-0.5,0-0.7-0.1c-0.2-0.1-0.3-0.2-0.3-0.3v-7.3h-2.2c-0.1,0.6-0.2,1-0.4,1.5
		c-0.2,0.4-0.5,0.8-0.9,1.1c-0.4,0.3-0.8,0.5-1.3,0.7c-0.5,0.2-1,0.2-1.5,0.2c-0.6,0-1.2-0.1-1.7-0.3s-0.9-0.5-1.3-0.8
		c-0.4-0.4-0.7-0.8-0.9-1.3C274.2,85.3,274.1,84.7,274.1,84.1z M280.7,84.1c0-0.8-0.2-1.4-0.7-1.9c-0.4-0.5-1-0.7-1.7-0.7
		c-0.7,0-1.3,0.2-1.7,0.7c-0.4,0.5-0.7,1.1-0.7,1.9s0.2,1.4,0.7,1.9c0.4,0.5,1,0.7,1.7,0.7c0.7,0,1.3-0.2,1.7-0.7
		S280.7,84.9,280.7,84.1z"/>
	<path class="st0" d="M328.2,89.2c-0.2,0-0.4-0.1-0.6-0.2c-0.2-0.1-0.4-0.3-0.6-0.5c-0.2-0.2-0.3-0.3-0.4-0.6
		c-0.1-0.2-0.2-0.4-0.2-0.5v-3.9h5.1v-2.4h-5.1v-1.6h6.3c0.4,0,0.6,0.2,0.6,0.5v5h-5.1v2c0,0.2,0,0.4,0.1,0.4
		c0.1,0.1,0.2,0.1,0.4,0.1h5.7c0.1,0,0.2,0.1,0.3,0.2c0.1,0.1,0.1,0.3,0.1,0.6c0,0.3,0,0.5-0.1,0.6c-0.1,0.1-0.2,0.2-0.3,0.2H328.2z
		 M338.1,92c0,0.1-0.1,0.2-0.3,0.3c-0.2,0.1-0.4,0.1-0.6,0.1c-0.3,0-0.5,0-0.7-0.1c-0.2-0.1-0.3-0.2-0.3-0.3V78.6h1.8V92z"/>
	<path class="st0" d="M379.9,78.5h9.6v4c0,0.3-0.1,0.6-0.2,0.8s-0.4,0.3-0.7,0.3h-3v1.3h5.8c0.2,0,0.4,0.2,0.4,0.7
		c0,0.3,0,0.5-0.1,0.6c-0.1,0.1-0.2,0.1-0.3,0.1h-13.6v-1.4h6v-1.3h-2.5c-0.1,0-0.2-0.1-0.4-0.2c-0.2-0.1-0.3-0.2-0.5-0.4
		c-0.2-0.2-0.3-0.3-0.4-0.5c-0.1-0.2-0.2-0.3-0.2-0.5V78.5z M389.6,91h-8v0.7c0,0.2,0.1,0.3,0.3,0.3h7.6c0.2,0,0.4,0.2,0.4,0.7
		c0,0.3,0,0.5-0.1,0.6c-0.1,0.1-0.2,0.2-0.3,0.2h-8.2c-0.2,0-0.3-0.1-0.5-0.2c-0.2-0.1-0.3-0.2-0.5-0.4c-0.2-0.2-0.3-0.3-0.4-0.5
		c-0.1-0.2-0.2-0.3-0.2-0.5v-2.4h8v-1h-8v-1.5h9.3c0.2,0,0.3,0,0.4,0.1c0.1,0.1,0.1,0.2,0.1,0.4V91z M381.7,81.6
		c0,0.2,0,0.3,0.1,0.3c0.1,0.1,0.2,0.1,0.3,0.1h5.6v-2.1h-6V81.6z"/>
</g>
</svg>
